<svg width="286" height="256" viewBox="0 0 286 256" fill="none" xmlns="http://www.w3.org/2000/svg">
<g filter="url(#filter0_d_0_223)">
<rect x="8" y="6" width="270" height="240" rx="12" fill="white"/>
</g>
<circle cx="64" cy="62" r="32" fill="#4A90E2"/>
<g filter="url(#filter1_d_0_223)">
<circle cx="64" cy="62" r="25" fill="white"/>
</g>
<rect x="114" y="54" width="128" height="8" rx="4" fill="#4A90E2"/>
<rect x="114" y="70" width="96" height="8" rx="4" fill="#F5A623"/>
<rect x="36" y="164" width="4" height="59" rx="2" fill="#F5A623"/>
<rect x="44" y="152" width="4" height="71" rx="2" fill="#417505"/>
<rect x="76" y="131" width="4" height="92" rx="2" fill="#F5A623"/>
<rect x="84" y="142" width="4" height="81" rx="2" fill="#417505"/>
<rect x="116" y="173" width="4" height="50" rx="2" fill="#F5A623"/>
<rect x="124" y="166" width="4" height="57" rx="2" fill="#417505"/>
<rect x="156" y="147" width="4" height="76" rx="2" fill="#F5A623"/>
<rect x="164" y="109" width="4" height="114" rx="2" fill="#417505"/>
<rect x="196" y="137" width="4" height="86" rx="2" fill="#F5A623"/>
<rect x="204" y="157" width="4" height="66" rx="2" fill="#417505"/>
<rect x="236" y="164" width="4" height="59" rx="2" fill="#F5A623"/>
<rect x="244" y="173" width="4" height="50" rx="2" fill="#417505"/>
<defs>
<filter id="filter0_d_0_223" x="0" y="0" width="286" height="256" filterUnits="userSpaceOnUse" color-interpolation-filters="sRGB">
<feFlood flood-opacity="0" result="BackgroundImageFix"/>
<feColorMatrix in="SourceAlpha" type="matrix" values="0 0 0 0 0 0 0 0 0 0 0 0 0 0 0 0 0 0 127 0" result="hardAlpha"/>
<feOffset dy="2"/>
<feGaussianBlur stdDeviation="4"/>
<feColorMatrix type="matrix" values="0 0 0 0 0 0 0 0 0 0 0 0 0 0 0 0 0 0 0.0818614 0"/>
<feBlend mode="normal" in2="BackgroundImageFix" result="effect1_dropShadow_0_223"/>
<feBlend mode="normal" in="SourceGraphic" in2="effect1_dropShadow_0_223" result="shape"/>
</filter>
<filter id="filter1_d_0_223" x="31" y="31" width="66" height="66" filterUnits="userSpaceOnUse" color-interpolation-filters="sRGB">
<feFlood flood-opacity="0" result="BackgroundImageFix"/>
<feColorMatrix in="SourceAlpha" type="matrix" values="0 0 0 0 0 0 0 0 0 0 0 0 0 0 0 0 0 0 127 0" result="hardAlpha"/>
<feOffset dy="2"/>
<feGaussianBlur stdDeviation="4"/>
<feColorMatrix type="matrix" values="0 0 0 0 0 0 0 0 0 0 0 0 0 0 0 0 0 0 0.0818614 0"/>
<feBlend mode="normal" in2="BackgroundImageFix" result="effect1_dropShadow_0_223"/>
<feBlend mode="normal" in="SourceGraphic" in2="effect1_dropShadow_0_223" result="shape"/>
</filter>
</defs>
</svg>
