<svg width="286" height="256" viewBox="0 0 286 256" fill="none" xmlns="http://www.w3.org/2000/svg">
<g filter="url(#filter0_d_0_344)">
<rect x="8" y="6" width="270" height="240" rx="12" fill="white"/>
</g>
<rect x="36" y="31" width="97" height="8" rx="4" fill="#4A90E2"/>
<rect x="36" y="47" width="73" height="8" rx="4" fill="#F5A623"/>
<rect x="45" y="112" width="8" height="30" rx="4" fill="#417505"/>
<rect x="45" y="144" width="8" height="38" rx="4" fill="#F5A623"/>
<circle cx="49" cy="208" r="12" fill="#4A90E2"/>
<rect x="93" y="80" width="8" height="54" rx="4" fill="#417505"/>
<rect x="93" y="136" width="8" height="46" rx="4" fill="#F5A623"/>
<circle cx="97" cy="208" r="12" fill="#4A90E2"/>
<rect x="141" y="96" width="8" height="54" rx="4" fill="#417505"/>
<rect x="141" y="152" width="8" height="30" rx="4" fill="#F5A623"/>
<circle cx="145" cy="208" r="12" fill="#4A90E2"/>
<rect x="189" y="120" width="8" height="38" rx="4" fill="#417505"/>
<rect x="189" y="160" width="8" height="22" rx="4" fill="#F5A623"/>
<circle cx="193" cy="208" r="12" fill="#4A90E2"/>
<rect x="237" y="96" width="8" height="46" rx="4" fill="#417505"/>
<rect x="237" y="144" width="8" height="38" rx="4" fill="#F5A623"/>
<circle cx="241" cy="208" r="12" fill="#4A90E2"/>
<defs>
<filter id="filter0_d_0_344" x="0" y="0" width="286" height="256" filterUnits="userSpaceOnUse" color-interpolation-filters="sRGB">
<feFlood flood-opacity="0" result="BackgroundImageFix"/>
<feColorMatrix in="SourceAlpha" type="matrix" values="0 0 0 0 0 0 0 0 0 0 0 0 0 0 0 0 0 0 127 0" result="hardAlpha"/>
<feOffset dy="2"/>
<feGaussianBlur stdDeviation="4"/>
<feColorMatrix type="matrix" values="0 0 0 0 0 0 0 0 0 0 0 0 0 0 0 0 0 0 0.0818614 0"/>
<feBlend mode="normal" in2="BackgroundImageFix" result="effect1_dropShadow_0_344"/>
<feBlend mode="normal" in="SourceGraphic" in2="effect1_dropShadow_0_344" result="shape"/>
</filter>
</defs>
</svg>
